 http://s17.postimage.org/htnqvqesv/one_more.png



One More Try [2012] DVDRip EP



info:


Imdb                             : http://www.imdb.com/title/tt2590280/
Genres                           : Drama
Director                         : Ruel S. Bayani
Audio Language                   : Filipino | Tagalog
Country                          : Philippines


General
Complete name                            : One More Try [2012] DVDRip EP.avi
Format                                   : AVI
Format/Info                              : Audio Video Interleave
File size                                : 1.08 GiB
Duration                                 : 1h 42mn
Overall bit rate                         : 1 521 Kbps


Video
ID                                       : 0
Format                                   : AVC
Format/Info                              : Advanced Video Codec
Format profile                           : High@L3.1
Format settings, CABAC                   : Yes
Format settings, ReFrames                : 3 frames
Codec ID                                 : H264
Duration                                 : 1h 42mn
Bit rate                                 : 1 319 Kbps
Width                                    : 1 280 pixels
Height                                   : 720 pixels
Display aspect ratio                     : 16:9
Frame rate                               : 25.000 fps
Color space                              : YUV
Chroma subsampling                       : 4:2:0
Bit depth                                : 8 bits
Scan type                                : Progressive
Bits/(Pixel*Frame)                       : 0.057
Stream size                              : 964 MiB (87%)
Writing library                          : x264 core 119 r2106kMod 07efeb4
Encoding settings                        : cabac=1 / ref=3 / deblock=1:0:0

Audio
ID                                       : 1
Format                                   : MPEG Audio
Format version                           : Version 1
Format profile                           : Layer 3
Codec ID                                 : 55
Codec ID/Hint                            : MP3
Duration                                 : 1h 42mn
Bit rate mode                            : Constant
Bit rate                                 : 192 Kbps
Channel(s)                               : 2 channels
Sampling rate                            : 44.1 KHz
Compression mode                         : Lossy
Stream size                              : 140 MiB (13%)
Alignment                                : Split accross interleaves
Interleave, duration                     : 40 ms (1.00 video frame)
Interleave, preload duration             : 500 ms
Writing library                          : LAMELAME_MAJOR_VERSI






cast:

Main Cast

Angel Locsin as Grace
Angelica Panganiban[5] as Jacqueline
Dingdong Dantes as Edward
Zanjoe Marudo as Tristan

Supporting 

CastGina Pareño
Carmina Villaroel[6]
Agot Isidro
Edward Mendez
Miguel Vergara



plot;

Grace (Angel Locsin) is a single mother willing to sacrifice everything to save her ill son, Botchok (Miguel Vergara). 

Grace lives a good life with her son and supportive boyfriend, Tristan (Zanjoe Marudo). When Botchok’s rare blood 

disease became severe, Grace was forced to reconnect with Botchok’s biological father, Edward (Dingdong Dantes). 

Edward, an accomplished man married to an equally successful Jacqueline (Angelica Panganiban), is uncomfortable 

with reconnecting with Grace. Having no children of their own, Jacqueline gives her blessings for Edward to 

reconnect with Grace to help save their son. The reconnection with Grace and Botchok starts to taint Edward's 

and Jacqueline's marriage. What becomes of relationships when a tangled web is woven? See the movie and find out.



ScreenShot:
 
http://s17.postimage.org/xubquynan/image.jpg 
http://s17.postimage.org/3qx830k1b/image.jpg 
http://s17.postimage.org/hlvilhegf/image.jpg 
http://s17.postimage.org/pfw46vm9b/image.jpg 
http://s17.postimage.org/71ll2w9yn/image.jpg 
http://s17.postimage.org/c1j1auflb/image.jpg 
http://s17.postimage.org/rbnhvs0hb/image.jpg